<svg width="47" height="47" viewBox="0 0 47 47" fill="none" xmlns="http://www.w3.org/2000/svg">
<g id="svg">
<rect id="Rectangle 10" width="47" height="47" rx="10" fill="#ECE4DE"/>
<g id="Group">
<g id="Artwork_52_">
<g id="Group_2">
<path id="Vector" d="M12.196 27.7818C12.3216 27.7693 12.4568 27.7622 12.6034 27.7622C13.496 27.7622 13.9749 28.019 14.3598 28.2253C14.6692 28.3912 14.8736 28.5007 15.3587 28.5007C15.8436 28.5007 16.048 28.3912 16.3573 28.2253C16.7422 28.019 17.2211 27.7622 18.1136 27.7622C19.0061 27.7622 19.485 28.019 19.8699 28.2253C20.1792 28.3913 20.3835 28.5007 20.8684 28.5007C21.3535 28.5007 21.5579 28.3911 21.8674 28.2253C22.2521 28.019 22.7311 27.7622 23.6237 27.7622C24.5162 27.7622 24.9952 28.019 25.38 28.2253C25.6895 28.3912 25.8939 28.5007 26.3789 28.5007C26.8642 28.5007 27.0685 28.3911 27.3779 28.2253C27.7627 28.019 28.2419 27.7622 29.1342 27.7622C30.027 27.7622 30.5059 28.019 30.8907 28.2253C31.2002 28.3912 31.4046 28.5007 31.8896 28.5007C32.3748 28.5007 32.5791 28.3911 32.8886 28.2253C33.2736 28.0189 33.7527 27.7622 34.6454 27.7622C34.712 27.7622 34.7377 27.7621 34.7998 27.7648C34.8444 27.7668 34.9689 27.7453 34.9689 27.5505V24.7299C34.9689 24.0419 34.5838 23.4441 34.0174 23.1397C33.9353 23.0956 33.7779 23.0354 33.6462 23.0873C33.2399 23.2474 32.7822 23.5504 31.8896 23.5504C30.997 23.5504 30.5179 23.2936 30.1332 23.0873C29.8237 22.9213 29.6193 22.8119 29.1342 22.8119C28.6493 22.8119 28.4448 22.9214 28.1354 23.0873C27.7506 23.2936 27.2715 23.5504 26.3789 23.5504C25.4864 23.5504 25.0073 23.2936 24.6226 23.0873C24.3132 22.9213 24.1086 22.8119 23.6237 22.8119C23.1387 22.8119 22.9342 22.9214 22.6249 23.0873C22.2399 23.2936 21.761 23.5504 20.8684 23.5504C19.9759 23.5504 19.4969 23.2936 19.1121 23.0873C18.8027 22.9213 18.5984 22.8119 18.1134 22.8119C17.6285 22.8119 17.4242 22.9214 17.1148 23.0873C16.7299 23.2936 16.251 23.5504 15.3585 23.5504C14.4659 23.5504 13.9981 23.2714 13.602 23.0873C13.4066 22.9965 13.2465 23.0217 13.1757 23.0495C12.5048 23.3126 12.0298 23.9657 12.0298 24.7299V27.5602C12.03 27.8036 12.1386 27.7875 12.196 27.7818Z" fill="#921515"/>
<path id="Vector_2" d="M36.7035 29.7302C36.2787 29.6366 35.8791 29.4924 35.6449 29.367C35.3354 29.2011 35.131 29.0916 34.6459 29.0916C34.1606 29.0916 33.9563 29.2012 33.6467 29.367C33.2619 29.5733 32.7827 29.8302 31.8902 29.8302C30.9974 29.8302 30.5185 29.5732 30.1337 29.367C29.8242 29.2011 29.6198 29.0916 29.1347 29.0916C28.6498 29.0916 28.4453 29.2012 28.136 29.367C27.7512 29.5732 27.272 29.8302 26.3795 29.8302C25.4868 29.8302 25.0079 29.5732 24.6231 29.367C24.3137 29.2011 24.1091 29.0916 23.6242 29.0916C23.1392 29.0916 22.9347 29.2012 22.6254 29.367C22.2404 29.5732 21.7615 29.8302 20.8689 29.8302C19.9764 29.8302 19.4974 29.5732 19.1126 29.367C18.8032 29.201 18.5989 29.0916 18.1139 29.0916C17.629 29.0916 17.4247 29.2011 17.1153 29.367C16.7304 29.5732 16.2515 29.8302 15.359 29.8302C14.4664 29.8302 13.9874 29.5732 13.6025 29.367C13.2931 29.2011 13.0887 29.0916 12.6037 29.0916C12.1186 29.0916 11.9142 29.2012 11.6048 29.367C11.271 29.5461 11.0749 29.7627 10.3907 29.8171C10.2007 29.8171 10 29.847 10 30.0407C10 30.2276 10 30.4076 10 30.6048V34.1539C10 35.1506 10.8079 35.9586 11.8046 35.9586H35.1953C36.192 35.9586 37 35.1506 37 34.1539V30.6048C37 30.3095 37 30.3786 37 30.0545C36.9997 29.782 36.8015 29.7518 36.7035 29.7302Z" fill="#921515"/>
<path id="Vector_3" d="M15.8979 22.1533C16.0596 22.1049 16.1939 22.0331 16.3573 21.9455C16.7422 21.7392 17.2211 21.4824 18.1136 21.4824C19.0061 21.4824 19.485 21.7392 19.8699 21.9455C20.1792 22.1114 20.3835 22.221 20.8684 22.221C21.3535 22.221 21.5579 22.1112 21.8674 21.9455C22.2521 21.7392 22.7311 21.4824 23.6237 21.4824C24.5162 21.4824 24.9952 21.7392 25.38 21.9455C25.6895 22.1113 25.8939 22.221 26.3789 22.221C26.8642 22.221 27.0685 22.1112 27.3779 21.9455C27.7627 21.7392 28.2419 21.4824 29.1342 21.4824C30.027 21.4824 30.5059 21.7392 30.8907 21.9455C30.9821 21.9945 31.0219 22.0185 31.105 22.0562C31.1353 22.07 31.2395 22.0686 31.2395 21.9001V19.8378C31.2395 19.1265 30.6629 18.5498 29.9515 18.5498H24.5078C24.4012 18.5498 24.4195 18.4991 24.4573 18.4725C25.4698 17.7627 26.9008 16.4735 27.3321 15.818C27.6378 15.3528 27.8538 14.8435 27.8179 14.1717C27.7542 12.9823 26.7818 12 25.5908 12C24.4189 12 23.6753 13.3065 23.4997 13.3065C23.3457 13.3065 22.6326 12 21.4081 12C20.2171 12 19.2446 12.9823 19.1809 14.1717C19.1451 14.8435 19.3616 15.3549 19.6669 15.818C20.0916 16.4624 21.5131 17.7378 22.5267 18.453C22.5742 18.4865 22.5924 18.5498 22.4801 18.5498H17.0473C16.3359 18.5498 15.7593 19.1265 15.7593 19.8378V21.9584C15.7596 22.1725 15.8542 22.1662 15.8979 22.1533Z" fill="#921515"/>
</g>
</g>
</g>
</g>
</svg>
