<svg width="460" height="67" viewBox="0 0 460 67" fill="none" xmlns="http://www.w3.org/2000/svg">
<path d="M12.305 62.9282C12.12 63.175 11.8733 63.5143 11.5649 63.9462C11.2564 64.3163 10.9481 64.6865 10.6397 65.0567C10.393 65.4885 10.1463 65.8279 9.89953 66.0747C9.65282 66.3831 9.46778 66.5373 9.34442 66.5373C8.54259 66.5373 8.14168 66.1055 8.14168 65.2418C8.14168 64.9332 8.35756 64.3163 8.7893 63.3909C9.52946 62.3421 10.2696 61.3241 11.0098 60.3371C11.7499 59.3499 12.4593 58.332 13.1377 57.2831C15.2965 54.1985 16.3759 52.0083 16.3759 50.7128C16.3759 50.1575 16.1908 49.8799 15.8208 49.8799C15.574 49.8799 15.204 50.0033 14.7105 50.25C13.1069 51.4223 11.1949 52.8412 8.97435 54.5069C6.81557 56.1727 4.25588 58.0852 1.29526 60.2445H0.647637C0.215878 60.2445 0 60.1828 0 60.0594C0 59.936 0.339235 59.6276 1.01771 59.1341C3.17648 57.4066 5.42778 55.6483 7.7716 53.8591C10.1771 52.0083 12.7059 50.0958 15.3582 48.1215C16.0367 47.5046 16.9926 47.1962 18.2262 47.1962C19.4599 47.1962 20.0767 47.7514 20.0767 48.8619C20.0767 50.0958 19.1823 52.07 17.3936 54.7846C17.2702 55.0314 17.116 55.2781 16.9309 55.5249C16.746 55.71 16.5918 55.9259 16.4684 56.1727C16.9618 56.1727 17.5477 56.1727 18.2262 56.1727C18.9047 56.1727 19.6757 56.1418 20.5392 56.0801C22.0195 55.9567 23.2839 55.9567 24.3325 56.0801C24.5792 55.6483 24.8259 55.2164 25.0727 54.7846C25.3193 54.3528 25.5969 53.89 25.9053 53.3965C26.5837 52.3476 27.2314 51.3914 27.8483 50.5276C28.5267 49.6639 29.2052 48.8927 29.8837 48.2141C30.3154 47.6588 30.9939 47.3813 31.9191 47.3813C32.4125 47.5046 32.6593 47.6588 32.6593 47.844C32.6593 47.844 31.5798 49.633 29.421 53.2113C27.2622 56.7896 26.1829 59.3808 26.1829 60.9848C26.1829 62.8973 27.0156 63.8536 28.6808 63.8536C30.7779 63.8536 33.8311 62.0336 37.8403 58.3937C38.0253 58.2086 38.2104 58.116 38.3953 58.116C38.5804 58.116 38.673 58.2395 38.673 58.4863C38.673 58.8564 38.0562 59.4733 36.8226 60.3371C34.8488 62.0644 33.0601 63.3909 31.4564 64.3163C29.8528 65.1801 28.3417 65.6119 26.923 65.6119C24.1475 65.6119 22.7597 64.4397 22.7597 62.0953C22.7597 60.553 23.0989 58.9798 23.7773 57.3757C23.0372 57.314 22.1429 57.2831 21.0943 57.2831C20.1075 57.2831 18.9972 57.3449 17.7636 57.4683C16.9001 57.53 16.345 57.5608 16.0982 57.5608C15.8516 57.5608 15.6665 57.5608 15.5432 57.5608C14.6797 58.7947 13.9087 59.9668 13.2303 61.0774C12.6135 62.1879 12.305 62.8048 12.305 62.9282ZM68.1713 57.8384C68.1713 58.5787 66.2592 59.9977 62.4352 62.0953C58.4259 64.3163 55.5579 65.4269 53.8309 65.4269C50.6236 65.4269 49.0199 63.7302 49.0199 60.3371C49.0199 59.4116 49.5133 58.3629 50.5002 57.1906C50.5002 57.129 50.4694 57.0982 50.4077 57.0982C50.4694 57.0982 48.804 58.3937 45.4116 60.9848C42.0193 63.5143 39.583 64.779 38.1027 64.779C36.684 64.779 35.9747 64.1929 35.9747 63.0208C35.9747 60.1828 38.3493 56.8822 43.0987 53.1188C47.6013 49.4789 51.117 47.6588 53.6458 47.6588C54.0159 47.7206 54.4168 47.9365 54.8486 48.3066C55.342 48.6152 55.5888 48.8619 55.5888 49.047C55.5888 49.1087 55.5579 49.1704 55.4963 49.2321C52.0422 49.2321 47.6321 51.9158 42.266 57.2831C40.5389 59.0106 39.6755 60.4605 39.6755 61.6326C39.6755 62.0644 39.8913 62.2804 40.3232 62.2804C41.6801 62.2804 44.2706 60.7072 48.0947 57.5608C51.1787 54.9697 53.3683 52.9029 54.6636 51.3605C55.2803 50.6202 55.7121 50.25 55.9588 50.25C56.5756 50.25 56.884 50.6819 56.884 51.5457C56.884 51.8541 56.4831 52.5636 55.6812 53.674C53.029 57.314 51.7029 59.6276 51.7029 60.6146C51.7029 62.3421 52.659 63.2059 54.571 63.2059C57.7167 63.2059 61.9725 61.3858 67.3387 57.7459C67.5237 57.5608 67.7087 57.4683 67.8938 57.4683C68.0789 57.4683 68.1713 57.5917 68.1713 57.8384ZM88.0188 51.268C87.8954 51.5765 87.5254 52.3167 86.9086 53.489C86.3534 54.6612 85.7366 55.895 85.0582 57.1906C84.3797 58.4863 83.7629 59.7201 83.2078 60.8923C82.6527 62.0027 82.3752 62.6506 82.3752 62.8356C82.3752 63.3293 82.5911 63.576 83.0228 63.576C84.0097 63.576 86.4151 61.9412 90.2393 58.6713C94.0634 55.5249 97.0548 52.5636 99.2136 49.7873C100.139 48.8619 100.817 48.3992 101.249 48.3992C102.051 48.3992 102.452 48.8003 102.452 49.6022C102.452 50.0958 102.236 50.6511 101.804 51.268C98.1033 56.8205 96.253 60.4296 96.253 62.0953C96.253 63.6377 96.9623 64.4089 98.3809 64.4089C100.54 64.4089 104.456 62.4655 110.131 58.5787C110.378 58.332 110.809 58.0543 111.426 57.7459C111.611 57.5608 111.796 57.4683 111.981 57.4683C112.166 57.4683 112.259 57.5917 112.259 57.8384C112.259 58.2086 111.796 58.7021 110.871 59.319C103.223 64.4397 98.1033 67 95.5128 67C93.7859 67 92.9223 66.013 92.9223 64.0388C92.9223 62.8665 93.1383 61.756 93.57 60.7072C94.1867 59.2265 94.4952 58.4246 94.4952 58.3012C94.4952 58.0543 94.4027 57.9309 94.2176 57.9309C94.2793 57.9309 94.125 57.9926 93.755 58.116C93.0766 58.7947 92.2439 59.535 91.257 60.3371C90.2701 61.1391 89.129 62.0336 87.8338 63.0208C84.5648 65.4885 82.2518 66.7225 80.8948 66.7225C79.4145 66.7225 78.6743 65.9821 78.6743 64.5014C78.6743 64.0696 78.9211 63.3601 79.4145 62.373C79.908 61.3858 80.679 59.9052 81.7275 57.9309C81.7892 57.9309 81.635 57.9926 81.265 58.116C80.5865 58.7947 79.7538 59.535 78.7669 60.3371C77.7801 61.1391 76.6389 62.0336 75.3437 63.0208C72.0747 65.4885 69.7617 66.7225 68.4048 66.7225C66.9244 66.7225 66.1843 65.9821 66.1843 64.5014C66.1843 63.6994 67.2637 61.3241 69.4225 57.3757C71.5813 53.3656 72.6607 51.0829 72.6607 50.5276C72.6607 49.849 72.1056 49.5096 70.9953 49.5096C70.7486 49.5096 70.6252 49.1395 70.6252 48.3992C71.1803 48.2141 71.7663 48.1215 72.383 48.1215C74.5418 48.1215 75.6213 48.7386 75.6213 49.9724C75.6213 51.3297 74.6652 53.6124 72.7532 56.8205C70.8412 60.0285 69.8851 62.0336 69.8851 62.8356C69.8851 63.3293 70.101 63.576 70.5327 63.576C71.5196 63.576 73.9251 61.9412 77.7492 58.6713C79.2296 57.4374 80.6482 56.0493 82.0051 54.5069C83.4238 52.9029 84.5648 51.3297 85.4283 49.7873C86.3534 48.8619 87.0319 48.3992 87.4637 48.3992C88.2656 48.3992 88.6665 48.8003 88.6665 49.6022C88.6665 50.0958 88.4505 50.6511 88.0188 51.268ZM142.013 57.8384C142.013 58.2086 141.551 58.7021 140.626 59.319C133.04 64.4397 127.92 67 125.267 67C123.541 67 122.678 66.013 122.678 64.0388C122.678 62.9282 122.893 61.8177 123.325 60.7072C123.942 59.1649 124.25 58.3629 124.25 58.3012C124.25 58.0543 124.158 57.9309 123.973 57.9309C123.91 57.9309 123.756 57.9926 123.51 58.116C122.153 59.4733 120.179 61.1083 117.589 63.0208C114.258 65.4885 111.945 66.7225 110.65 66.7225C109.17 66.7225 108.429 65.9821 108.429 64.5014C108.429 63.6377 109.509 61.2625 111.667 57.3757C113.826 53.4273 114.906 51.1446 114.906 50.5276C114.906 49.849 114.351 49.5096 113.24 49.5096C112.994 49.5096 112.87 49.1395 112.87 48.3992C113.425 48.2141 114.011 48.1215 114.628 48.1215C116.787 48.1215 117.866 48.7386 117.866 49.9724C117.866 51.3297 116.91 53.6124 114.998 56.8205C113.086 60.0285 112.13 62.0336 112.13 62.8356C112.13 63.3293 112.346 63.576 112.778 63.576C113.765 63.576 116.17 61.9412 119.994 58.6713C123.881 55.4015 126.872 52.4401 128.969 49.7873C129.894 48.8619 130.572 48.3992 131.004 48.3992C131.806 48.3992 132.206 48.8003 132.206 49.6022C132.206 50.0341 131.991 50.5894 131.56 51.268C127.858 56.8205 126.007 60.4296 126.007 62.0953C126.007 63.6377 126.718 64.4089 128.135 64.4089C130.295 64.4089 134.211 62.4655 139.885 58.5787C140.194 58.332 140.626 58.0543 141.181 57.7459C141.367 57.5608 141.551 57.4683 141.736 57.4683C141.921 57.4683 142.013 57.5917 142.013 57.8384ZM199.103 2.96133C199.103 9.25415 196.142 16.6266 190.22 25.0788C185.718 31.5566 180.075 37.9111 173.29 44.1423C167.431 49.5096 163.883 52.1934 162.65 52.1934C159.75 58.1777 158.301 61.6326 158.301 62.5581C161.817 59.1649 165.363 55.7716 168.942 52.3784C175.973 46.1473 181.154 43.0318 184.484 43.0318C185.78 43.2169 186.428 43.7722 186.428 44.6975C186.428 47.3504 185.194 49.633 182.726 51.5457C180.444 52.9646 178.132 54.3528 175.787 55.71C173.32 57.2523 172.087 58.8872 172.087 60.6146C172.087 63.3293 173.167 64.6865 175.325 64.6865C177.853 64.6865 182.326 62.6506 188.74 58.5787C189.048 58.332 189.48 58.0543 190.036 57.7459C190.22 57.5608 190.405 57.4683 190.591 57.4683C190.776 57.4683 190.868 57.5917 190.868 57.8384C190.868 57.9001 190.467 58.332 189.665 59.1341C188.185 60.6146 185.626 62.2804 181.986 64.1312C178.347 65.9204 175.633 66.815 173.845 66.815C170.514 66.815 168.848 65.2109 168.848 62.0027C168.848 59.535 170.082 57.4683 172.55 55.8025C174.77 54.5069 177.052 53.1805 179.396 51.8232C181.801 50.4042 183.004 48.7386 183.004 46.826C183.004 45.9623 182.603 45.5304 181.801 45.5304C179.827 45.5304 175.047 49.0778 167.46 56.1727C159.936 63.2059 155.896 66.7225 155.341 66.7225C154.601 66.6607 154.231 66.3214 154.231 65.7044C154.231 65.2726 154.416 64.7483 154.785 64.1312C157.747 58.0852 160.707 52.0392 163.667 45.9932C169.897 33.3458 175.418 23.2896 180.229 15.8246C187.075 5.27486 192.379 0 196.141 0C198.115 0 199.103 0.987106 199.103 2.96133ZM196.419 4.34945C196.419 2.93048 195.864 2.22099 194.753 2.22099C189.203 3.63996 178.81 19.7113 163.575 50.4351C165.24 49.8799 168.694 46.9494 173.937 41.6437C179.858 35.5977 184.823 29.5516 188.833 23.5055C193.89 15.8554 196.419 9.47008 196.419 4.34945ZM215.898 57.8384C215.898 58.0852 215.589 58.4554 214.972 58.9489C212.259 61.2317 209.515 62.373 206.739 62.373C205.011 62.373 203.531 61.9103 202.297 60.9848C199.46 64.6865 196.377 66.5373 193.046 66.5373C190.579 66.5373 189.345 64.9949 189.345 61.9103C189.345 57.9001 191.319 53.8591 195.266 49.7873C198.597 46.3941 201.034 44.6975 202.576 44.6975C203.562 44.6975 204.056 45.006 204.056 45.6229C204.056 45.8081 203.871 46.0548 203.5 46.3633C202.02 46.6718 200.016 48.2449 197.486 51.0829C194.403 54.5378 192.861 57.8692 192.861 61.0774C192.861 63.175 193.601 64.2238 195.081 64.2238C197.24 64.2238 199.429 62.959 201.651 60.4296C200.478 59.1341 199.892 57.53 199.892 55.6175C199.892 53.3965 200.448 51.484 201.557 49.8799C202.545 48.5226 203.593 47.844 204.703 47.844C205.813 47.844 206.461 48.6152 206.647 50.1575C206.647 52.8721 205.69 55.8025 203.779 58.9489C204.827 60.1211 206.245 60.7072 208.034 60.7072C210.439 60.7072 212.783 59.7201 215.066 57.7459C215.251 57.5608 215.435 57.4683 215.62 57.4683C215.806 57.4683 215.898 57.5917 215.898 57.8384ZM205.721 50.7128C205.721 50.0958 205.505 49.7873 205.073 49.7873C204.519 49.7873 203.933 50.2808 203.316 51.268C202.699 52.2551 202.391 53.5199 202.391 55.0621C202.391 56.3578 202.668 57.4374 203.223 58.3012C204.888 55.71 205.721 53.1805 205.721 50.7128ZM224.268 62.9282C224.083 63.175 223.836 63.5143 223.528 63.9462C223.219 64.3163 222.911 64.6865 222.602 65.0567C222.355 65.4885 222.109 65.8279 221.862 66.0747C221.615 66.3831 221.431 66.5373 221.306 66.5373C220.505 66.5373 220.104 66.1055 220.104 65.2418C220.104 64.9332 220.32 64.3163 220.752 63.3909C221.492 62.3421 222.232 61.3241 222.972 60.3371C223.712 59.3499 224.422 58.332 225.1 57.2831C227.259 54.1985 228.339 52.0083 228.339 50.7128C228.339 50.1575 228.153 49.8799 227.783 49.8799C227.536 49.8799 227.167 50.0033 226.673 50.25C225.069 51.4223 223.157 52.8412 220.937 54.5069C218.778 56.1727 216.218 58.0852 213.258 60.2445H212.61C212.178 60.2445 211.962 60.1828 211.962 60.0594C211.962 59.936 212.302 59.6276 212.981 59.1341C215.139 57.4066 217.39 55.6483 219.734 53.8591C222.14 52.0083 224.668 50.0958 227.32 48.1215C227.999 47.5046 228.956 47.1962 230.188 47.1962C231.422 47.1962 232.039 47.7514 232.039 48.8619C232.039 50.0958 231.145 52.07 229.356 54.7846C229.233 55.0314 229.079 55.2781 228.893 55.5249C228.708 55.71 228.554 55.9259 228.431 56.1727C228.924 56.1727 229.51 56.1727 230.188 56.1727C230.867 56.1727 231.638 56.1418 232.502 56.0801C233.982 55.9567 235.246 55.9567 236.295 56.0801C236.541 55.6483 236.789 55.2164 237.035 54.7846C237.281 54.3528 237.56 53.89 237.868 53.3965C238.546 52.3476 239.194 51.3914 239.811 50.5276C240.489 49.6639 241.168 48.8927 241.846 48.2141C242.277 47.6588 242.957 47.3813 243.882 47.3813C244.374 47.5046 244.622 47.6588 244.622 47.844C244.622 47.844 243.542 49.633 241.383 53.2113C239.225 56.7896 238.146 59.3808 238.146 60.9848C238.146 62.8973 238.978 63.8536 240.643 63.8536C242.74 63.8536 245.794 62.0336 249.802 58.3937C249.988 58.2086 250.173 58.116 250.358 58.116C250.543 58.116 250.635 58.2395 250.635 58.4863C250.635 58.8564 250.019 59.4733 248.785 60.3371C246.811 62.0644 245.022 63.3909 243.419 64.3163C241.815 65.1801 240.304 65.6119 238.886 65.6119C236.11 65.6119 234.722 64.4397 234.722 62.0953C234.722 60.553 235.061 58.9798 235.74 57.3757C235 57.314 234.106 57.2831 233.056 57.2831C232.07 57.2831 230.959 57.3449 229.727 57.4683C228.862 57.53 228.308 57.5608 228.061 57.5608C227.814 57.5608 227.628 57.5608 227.505 57.5608C226.642 58.7947 225.871 59.9668 225.193 61.0774C224.576 62.1879 224.268 62.8048 224.268 62.9282ZM307.149 57.8384C307.149 58.2086 306.687 58.7021 305.762 59.319C301.383 62.2804 298.946 63.9154 298.452 64.2238C295.678 65.8895 293.364 66.7225 291.513 66.7225C290.465 66.7225 289.571 66.3522 288.831 65.6119C288.152 64.8715 287.813 63.9771 287.813 62.9282C287.813 59.8435 289.787 55.4324 293.734 49.6948C294.042 49.2629 294.196 48.9853 294.196 48.8619C294.196 48.8003 294.166 48.7694 294.104 48.7694C293.858 48.7694 293.425 48.9853 292.809 49.4172C289.354 52.0083 285.531 54.8771 281.337 58.0235C279.547 59.5659 276.927 61.7252 273.473 64.5014C272.979 64.8715 272.301 65.2109 271.437 65.5193C271.005 65.5193 270.79 65.2109 270.79 64.594C270.79 63.3601 271.807 61.3858 273.842 58.6713C275.939 55.895 276.988 53.9517 276.988 52.8412C276.988 51.7924 276.495 51.268 275.508 51.268C274.027 51.268 271.067 53.273 266.626 57.2831C263.604 59.9977 260.952 62.6198 258.67 65.1492C257.806 66.0747 257.127 66.5373 256.634 66.5373C255.833 66.5373 255.431 66.1055 255.431 65.2418C255.431 64.9949 255.647 64.378 256.079 63.3909C257.559 61.355 259.009 59.3191 260.427 57.2831C262.586 54.1985 263.666 52.0083 263.666 50.7128C263.666 50.1575 263.48 49.8799 263.11 49.8799C262.926 49.8799 262.555 50.0033 262 50.25C258.855 52.5944 254.382 55.9259 248.585 60.2445H247.937C247.506 60.2445 247.289 60.1828 247.289 60.0594C247.289 59.8744 247.629 59.5659 248.308 59.1341C252.625 55.7409 257.405 52.07 262.648 48.1215C263.388 47.5046 264.344 47.1962 265.515 47.1962C266.749 47.1962 267.366 47.7514 267.366 48.8619C267.366 49.1087 267.305 49.4789 267.181 49.9724C265.948 52.1317 264.375 54.8771 262.463 58.2086C262.216 58.6404 262.092 58.9181 262.092 59.0415C262.092 59.1032 262.155 59.1341 262.278 59.1341L262.555 59.0415C264.837 57.0673 267.12 55.093 269.402 53.1188C272.917 50.1575 275.447 48.6769 276.988 48.6769C279.024 48.6769 280.041 49.3246 280.041 50.6202C280.041 51.7307 279.424 53.4273 278.19 55.71C277.019 57.9309 276.433 59.1341 276.433 59.319C276.433 59.5042 276.495 59.5967 276.618 59.5967C276.865 59.5967 277.296 59.3808 277.913 58.9489L297.158 44.4199C297.775 43.9264 298.421 43.6796 299.1 43.6796C299.532 43.6796 299.84 43.7722 300.026 43.9571C300.21 44.0806 300.303 44.3274 300.303 44.6975C300.303 45.1294 300.18 45.4995 299.932 45.8081C298.206 48.2758 296.447 50.7745 294.659 53.3039C292.562 56.512 291.513 59.2882 291.513 61.6326C291.513 63.1133 292.316 63.8228 293.919 63.7611C295.832 63.6994 297.99 62.9282 300.395 61.4475C302.369 60.2137 304.343 58.9798 306.317 57.7459C306.502 57.5608 306.687 57.4683 306.871 57.4683C307.057 57.4683 307.149 57.5917 307.149 57.8384ZM335.971 57.8384C335.971 58.5787 334.058 59.9977 330.235 62.0953C326.225 64.3163 323.357 65.4269 321.63 65.4269C318.423 65.4269 316.819 63.7302 316.819 60.3371C316.819 59.4116 317.312 58.3629 318.3 57.1906C318.3 57.129 318.268 57.0982 318.206 57.0982C318.268 57.0982 316.603 58.3937 313.211 60.9848C309.818 63.5143 307.382 64.779 305.902 64.779C304.483 64.779 303.774 64.1929 303.774 63.0208C303.774 60.1828 306.148 56.8822 310.898 53.1188C315.4 49.4789 318.917 47.6588 321.445 47.6588C321.814 47.7206 322.216 47.9365 322.648 48.3066C323.142 48.6152 323.388 48.8619 323.388 49.047C323.388 49.1087 323.357 49.1704 323.296 49.2321C319.842 49.2321 315.431 51.9158 310.065 57.2831C308.338 59.0106 307.475 60.4605 307.475 61.6326C307.475 62.0644 307.69 62.2804 308.122 62.2804C309.479 62.2804 312.07 60.7072 315.894 57.5608C318.977 54.9697 321.168 52.9029 322.462 51.3605C323.079 50.6202 323.511 50.25 323.758 50.25C324.375 50.25 324.683 50.6819 324.683 51.5457C324.683 51.8541 324.282 52.5636 323.48 53.674C320.828 57.314 319.502 59.6276 319.502 60.6146C319.502 62.3421 320.458 63.2059 322.37 63.2059C325.516 63.2059 329.772 61.3858 335.138 57.7459C335.323 57.5608 335.508 57.4683 335.692 57.4683C335.878 57.4683 335.971 57.5917 335.971 57.8384ZM376.912 2.96133C376.912 9.25415 373.952 16.6266 368.031 25.0788C363.528 31.5566 357.884 37.9111 351.099 44.1423C345.24 49.5096 341.694 52.1934 340.46 52.1934C337.561 58.1777 336.112 61.6326 336.112 62.5581C339.627 59.1649 343.174 55.7716 346.751 52.3784C353.782 46.1473 358.964 43.0318 362.294 43.0318C363.589 43.2169 364.237 43.7722 364.237 44.6975C364.237 47.3504 363.003 49.633 360.537 51.5457C358.255 52.9646 355.941 54.3528 353.598 55.71C351.13 57.2523 349.897 58.8872 349.897 60.6146C349.897 63.3293 350.976 64.6865 353.135 64.6865C355.664 64.6865 360.135 62.6506 366.55 58.5787C366.859 58.332 367.29 58.0543 367.845 57.7459C368.031 57.5608 368.216 57.4683 368.4 57.4683C368.585 57.4683 368.679 57.5917 368.679 57.8384C368.679 57.9001 368.277 58.332 367.476 59.1341C365.995 60.6146 363.435 62.2804 359.797 64.1312C356.158 65.9204 353.444 66.815 351.655 66.815C348.324 66.815 346.659 65.2109 346.659 62.0027C346.659 59.535 347.892 57.4683 350.359 55.8025C352.579 54.5069 354.862 53.1805 357.206 51.8232C359.612 50.4042 360.814 48.7386 360.814 46.826C360.814 45.9623 360.413 45.5304 359.612 45.5304C357.638 45.5304 352.858 49.0778 345.271 56.1727C337.746 63.2059 333.705 66.7225 333.151 66.7225C332.411 66.6607 332.041 66.3214 332.041 65.7044C332.041 65.2726 332.225 64.7483 332.596 64.1312C335.556 58.0852 338.517 52.0392 341.478 45.9932C347.708 33.3458 353.227 23.2896 358.038 15.8246C364.885 5.27486 370.19 0 373.952 0C375.926 0 376.912 0.987106 376.912 2.96133ZM374.229 4.34945C374.229 2.93048 373.675 2.22099 372.564 2.22099C367.013 3.63996 356.62 19.7113 341.385 50.4351C343.051 49.8799 346.505 46.9494 351.747 41.6437C357.669 35.5977 362.634 29.5516 366.643 23.5055C371.701 15.8554 374.229 9.47008 374.229 4.34945ZM424.424 57.8384C424.424 58.2086 423.962 58.7021 423.036 59.319C418.657 62.2804 416.222 63.9154 415.728 64.2238C412.952 65.8895 410.64 66.7225 408.789 66.7225C407.74 66.7225 406.846 66.3522 406.106 65.6119C405.427 64.8715 405.088 63.9771 405.088 62.9282C405.088 59.8435 407.061 55.4324 411.009 49.6948C411.318 49.2629 411.472 48.9853 411.472 48.8619C411.472 48.8003 411.441 48.7694 411.38 48.7694C411.132 48.7694 410.701 48.9853 410.084 49.4172C406.63 52.0083 402.805 54.8771 398.611 58.0235C396.823 59.5659 394.201 61.7252 390.747 64.5014C390.254 64.8715 389.575 65.2109 388.712 65.5193C388.281 65.5193 388.064 65.2109 388.064 64.594C388.064 63.3601 389.082 61.3858 391.118 58.6713C393.215 55.895 394.263 53.9517 394.263 52.8412C394.263 51.7924 393.769 51.268 392.783 51.268C391.303 51.268 388.342 53.273 383.901 57.2831C380.879 59.9977 378.226 62.6198 375.945 65.1492C375.081 66.0747 374.403 66.5373 373.909 66.5373C373.107 66.5373 372.706 66.1055 372.706 65.2418C372.706 64.9949 372.923 64.378 373.354 63.3909C374.834 61.355 376.283 59.3191 377.702 57.2831C379.862 54.1985 380.94 52.0083 380.94 50.7128C380.94 50.1575 380.756 49.8799 380.385 49.8799C380.2 49.8799 379.831 50.0033 379.275 50.25C376.129 52.5944 371.658 55.9259 365.859 60.2445H365.213C364.781 60.2445 364.565 60.1828 364.565 60.0594C364.565 59.8744 364.904 59.5659 365.582 59.1341C369.9 55.7409 374.68 52.07 379.923 48.1215C380.663 47.5046 381.619 47.1962 382.791 47.1962C384.025 47.1962 384.641 47.7514 384.641 48.8619C384.641 49.1087 384.579 49.4789 384.456 49.9724C383.222 52.1317 381.65 54.8771 379.737 58.2086C379.491 58.6404 379.368 58.9181 379.368 59.0415C379.368 59.1032 379.429 59.1341 379.553 59.1341L379.831 59.0415C382.113 57.0673 384.394 55.093 386.676 53.1188C390.192 50.1575 392.721 48.6769 394.263 48.6769C396.299 48.6769 397.317 49.3246 397.317 50.6202C397.317 51.7307 396.7 53.4273 395.466 55.71C394.294 57.9309 393.708 59.1341 393.708 59.319C393.708 59.5042 393.769 59.5967 393.894 59.5967C394.14 59.5967 394.572 59.3808 395.188 58.9489L414.432 44.4199C415.049 43.9264 415.697 43.6796 416.375 43.6796C416.807 43.6796 417.116 43.7722 417.3 43.9571C417.485 44.0806 417.579 44.3274 417.579 44.6975C417.579 45.1294 417.454 45.4995 417.208 45.8081C415.48 48.2758 413.723 50.7745 411.934 53.3039C409.837 56.512 408.789 59.2882 408.789 61.6326C408.789 63.1133 409.59 63.8228 411.194 63.7611C413.106 63.6994 415.265 62.9282 417.671 61.4475C419.645 60.2137 421.618 58.9798 423.592 57.7459C423.776 57.5608 423.962 57.4683 424.147 57.4683C424.332 57.4683 424.424 57.5917 424.424 57.8384ZM425.583 61.17C425.583 62.8356 426.261 63.6685 427.618 63.6685C428.605 63.6685 429.591 63.3909 430.579 62.8356C431.565 62.2804 432.522 61.5709 433.447 60.7072C432.522 59.7818 432.059 58.6404 432.059 57.2831C432.059 55.8025 432.46 54.5378 433.262 53.489C434.125 52.3784 435.081 51.8232 436.13 51.8232C437.178 51.8232 437.795 52.3167 437.979 53.3039C437.979 54.2293 437.826 55.2472 437.518 56.3578C437.209 57.4066 436.653 58.5479 435.852 59.7818C436.777 60.7072 438.073 61.17 439.738 61.17C440.724 61.17 441.712 60.9231 442.698 60.4296C442.946 58.2703 443.963 55.8025 445.752 53.0262C446.429 51.9775 447.077 51.0212 447.694 50.1575C448.373 49.2938 449.051 48.5226 449.73 47.844C450.162 47.2887 450.84 47.0111 451.765 47.0111C452.259 47.1345 452.505 47.2887 452.505 47.4737C452.505 47.5354 452.136 47.9982 451.396 48.8619C450.717 49.7256 449.853 51.052 448.805 52.8412C447.509 54.9388 446.554 56.7896 445.937 58.3937C445.998 58.4554 446.029 58.5479 446.029 58.6713C446.029 58.9181 445.906 59.2265 445.659 59.5967C445.597 59.8435 445.566 60.1828 445.566 60.6146C445.566 61.6018 445.844 62.3421 446.4 62.8356C446.954 63.2676 447.663 63.4834 448.528 63.4834C450.748 63.4834 454.294 61.6943 459.167 58.116C459.352 57.9309 459.537 57.8384 459.721 57.8384C459.907 57.8384 460 57.9618 460 58.2086C460 58.5787 459.383 59.1958 458.149 60.0594C455.744 61.7869 453.462 63.2367 451.302 64.4089C449.205 65.581 447.448 66.1671 446.029 66.1671C444.611 66.1671 443.686 65.7353 443.254 64.8715C442.821 63.9462 442.606 62.8973 442.606 61.7252V61.5401C441.804 61.8486 441.033 62.0953 440.293 62.2804C439.553 62.4655 438.967 62.5581 438.535 62.5581C437.672 62.5581 436.993 62.4655 436.499 62.2804C436.007 62.0336 435.482 61.6943 434.927 61.2625C433.631 62.8048 432.151 64.0079 430.486 64.8715C428.82 65.7353 427.217 66.1671 425.675 66.1671C424.503 66.1671 423.64 65.7044 423.084 64.779C422.529 63.7919 422.252 62.6815 422.252 61.4475C422.252 60.6455 422.529 59.4425 423.084 57.8384C423.64 56.1727 424.349 54.5069 425.212 52.8412C426.137 51.1754 427.155 49.7256 428.266 48.4917C429.376 47.2579 430.455 46.641 431.503 46.641C431.997 46.7642 432.244 46.9185 432.244 47.1036C432.244 47.1036 431.165 48.8927 429.006 52.471C427.957 54.2602 427.124 55.9567 426.508 57.5608C425.891 59.1032 425.583 60.3062 425.583 61.17ZM436.962 53.674C437.209 53.5507 437.209 53.4582 436.962 53.3965C436.777 53.273 436.561 53.2113 436.315 53.2113C435.821 53.2113 435.328 53.5507 434.834 54.2294C434.402 54.908 434.187 55.8025 434.187 56.913C434.187 57.8384 434.402 58.6096 434.834 59.2265C435.574 58.3012 436.099 57.3449 436.407 56.3578C436.777 55.3089 436.962 54.4761 436.962 53.8591V53.674Z" fill="white"/>
</svg>
