<svg width="57" height="57" viewBox="0 0 57 57" fill="none" xmlns="http://www.w3.org/2000/svg">
<path id="svg" fill-rule="evenodd" clip-rule="evenodd" d="M28.5 57C44.2401 57 57 44.2401 57 28.5C57 12.7599 44.2401 0 28.5 0C12.7599 0 0 12.7599 0 28.5C0 44.2401 12.7599 57 28.5 57ZM14.25 22.4533C14.25 17.9298 17.9303 14.25 22.4533 14.25H34.5467C39.0702 14.25 42.75 17.9303 42.75 22.4533V34.6576C42.75 39.1807 39.0702 42.8609 34.5467 42.8609H22.4533C17.9298 42.8609 14.25 39.1807 14.25 34.6576V22.4533ZM21.0833 28.5031C21.0833 24.4443 24.421 21.1426 28.5226 21.1426C32.6243 21.1426 35.9619 24.4443 35.9619 28.5031C35.9619 32.5614 32.6243 35.8631 28.5226 35.8631C24.4205 35.8631 21.0833 32.5614 21.0833 28.5031ZM23.7931 28.5031C23.7931 31.0669 25.9145 33.1534 28.5226 33.1534C31.1307 33.1534 33.2522 31.0673 33.2522 28.5031C33.2522 25.9388 31.1303 23.8527 28.5226 23.8527C25.9145 23.8527 23.7931 25.9388 23.7931 28.5031ZM36.0951 22.5922C37.0619 22.5922 37.8455 21.8085 37.8455 20.8418C37.8455 19.8752 37.0619 19.0915 36.0951 19.0915C35.1284 19.0915 34.3447 19.8752 34.3447 20.8418C34.3447 21.8085 35.1284 22.5922 36.0951 22.5922Z" fill="white"/>
</svg>
