<svg width="42" height="39" viewBox="0 0 42 39" fill="none" xmlns="http://www.w3.org/2000/svg">
<g id="svg">
<g id="Group">
<path id="Vector" d="M22.8287 16.0039V22.7425" stroke="white" stroke-width="0.9" stroke-linecap="round" stroke-linejoin="round"/>
<path id="Vector_2" d="M28.0545 22.7425L24.7479 19.3732L28.0545 16.0266" stroke="white" stroke-width="0.9" stroke-linecap="round" stroke-linejoin="round"/>
<path id="Vector_3" d="M24.7479 19.373H22.8287" stroke="white" stroke-width="0.9" stroke-linecap="round" stroke-linejoin="round"/>
</g>
<path id="Vector_4" d="M12.0671 21.8708C11.4842 22.4095 10.6791 22.7425 9.78976 22.7425C8.01111 22.7425 6.56921 21.41 6.56921 19.7663V18.9801C6.56921 17.3364 8.01111 16.0039 9.78976 16.0039C10.6791 16.0039 11.4842 16.337 12.067 16.8756" stroke="white" stroke-width="0.9" stroke-linecap="round" stroke-linejoin="round"/>
<g id="Group_2">
<path id="Vector_5" d="M30.4829 19.373H33.6523" stroke="white" stroke-width="0.9" stroke-linecap="round" stroke-linejoin="round"/>
<path id="Vector_6" d="M35.3441 22.7425H30.4829V16.0039H35.3441" stroke="white" stroke-width="0.9" stroke-linecap="round" stroke-linejoin="round"/>
</g>
<path id="Vector_7" d="M14.0808 22.7376L17.2406 16.019L20.4003 22.7576" stroke="white" stroke-width="0.9" stroke-linecap="round" stroke-linejoin="round"/>
<path id="Vector_8" d="M21 37.9035C32.0457 37.9035 41 29.6285 41 19.4207C41 9.213 32.0457 0.937988 21 0.937988C9.95431 0.937988 1 9.213 1 19.4207C1 29.6285 9.95431 37.9035 21 37.9035Z" stroke="white" stroke-width="0.9" stroke-linecap="round" stroke-linejoin="round"/>
</g>
</svg>
