<svg width="91" height="90" viewBox="0 0 91 90" fill="none" xmlns="http://www.w3.org/2000/svg">
<g id="svg">
<path id="Vector" d="M45.2021 89C69.6142 89 89.4041 69.3005 89.4041 45C89.4041 20.6995 69.6142 1 45.2021 1C20.7899 1 1 20.6995 1 45C1 69.3005 20.7899 89 45.2021 89Z" stroke="black" stroke-width="2" stroke-linecap="round" stroke-linejoin="round"/>
<g id="Group">
<g id="Group_2">
<path id="Vector_2" d="M49.2438 36.8661V52.9079" stroke="black" stroke-width="2" stroke-linecap="round" stroke-linejoin="round"/>
<path id="Vector_3" d="M60.7933 52.908L53.4854 44.8871L60.7933 36.9202" stroke="black" stroke-width="2" stroke-linecap="round" stroke-linejoin="round"/>
<path id="Vector_4" d="M53.4854 44.8867H49.2438" stroke="black" stroke-width="2" stroke-linecap="round" stroke-linejoin="round"/>
</g>
<path id="Vector_5" d="M25.4593 50.8324C24.1712 52.1146 22.3918 52.9076 20.4263 52.9076C16.4953 52.9076 13.3085 49.7354 13.3085 45.8224V43.9508C13.3085 40.0378 16.4953 36.8656 20.4263 36.8656C22.3918 36.8656 24.1712 37.6585 25.4591 38.9408" stroke="black" stroke-width="2" stroke-linecap="round" stroke-linejoin="round"/>
<g id="Group_3">
<path id="Vector_6" d="M66.1603 44.8867H73.165" stroke="black" stroke-width="2" stroke-linecap="round" stroke-linejoin="round"/>
<path id="Vector_7" d="M76.904 52.9079H66.1603V36.8661H76.904" stroke="black" stroke-width="2" stroke-linecap="round" stroke-linejoin="round"/>
</g>
<path id="Vector_8" d="M29.91 52.8962L36.8934 36.902L43.8768 52.9438" stroke="black" stroke-width="2" stroke-linecap="round" stroke-linejoin="round"/>
</g>
</g>
</svg>
