<svg width="57" height="57" viewBox="0 0 57 57" fill="none" xmlns="http://www.w3.org/2000/svg">
<path id="svg" fill-rule="evenodd" clip-rule="evenodd" d="M28.5 57C44.24 57 57 44.24 57 28.5C57 12.76 44.24 0 28.5 0C12.76 0 0 12.76 0 28.5C0 44.24 12.76 57 28.5 57ZM41.0269 18.2081C41.2469 15.7115 38.6101 16.7398 38.6101 16.7398C36.6635 17.5457 34.656 18.3643 32.6268 19.1919C26.334 21.7586 19.8337 24.4102 14.2962 27.0203C11.2934 28.1215 13.0513 29.2228 13.0513 29.2228L17.8114 30.6917C20.0087 31.3528 21.1801 30.6181 21.1801 30.6181L31.4332 23.6425C35.0949 21.1459 34.216 23.2018 33.337 24.0831L25.6477 31.4258C24.4758 32.4541 25.0618 33.3353 25.5742 33.7759C27.0277 35.0578 30.6016 37.4034 32.1617 38.4271C32.5675 38.6933 32.8371 38.8706 32.8981 38.9162C33.2641 39.2097 35.2414 40.5316 36.5598 40.238C37.8782 39.9439 38.0247 38.255 38.0247 38.255L39.782 26.7262C40.0453 24.7249 40.348 22.8011 40.5897 21.2644C40.8177 19.8132 40.9915 18.708 41.0269 18.2081Z" fill="white"/>
</svg>
