<svg width="47" height="47" viewBox="0 0 47 47" fill="none" xmlns="http://www.w3.org/2000/svg">
<g id="svg">
<rect id="Rectangle 11" width="47" height="47" rx="10" fill="#ECE4DE"/>
<g id="Layer 2">
<g id="icons Q2">
<path id="Vector" d="M24 11.0834C21.6431 11.0834 19.3391 11.7823 17.3795 13.0917C15.4198 14.4011 13.8924 16.2622 12.9904 18.4397C12.0885 20.6172 11.8525 23.0133 12.3123 25.3249C12.7721 27.6365 13.9071 29.7598 15.5736 31.4264C17.2402 33.093 19.3636 34.2279 21.6752 34.6877C23.9868 35.1475 26.3828 34.9115 28.5603 34.0096C30.7378 33.1077 32.5989 31.5803 33.9083 29.6206C35.2178 27.6609 35.9167 25.3569 35.9167 23C35.9238 21.4331 35.6205 19.8803 35.0242 18.4313C34.4278 16.9822 33.5503 15.6657 32.4423 14.5577C31.3343 13.4497 30.0178 12.5722 28.5688 11.9759C27.1197 11.3795 25.5669 11.0762 24 11.0834ZM30.3375 26.7917C30.2401 26.9505 30.1052 27.0829 29.9446 27.1774C29.7841 27.2718 29.6028 27.3254 29.4167 27.3334C29.2245 27.3309 29.0368 27.2746 28.875 27.1709L22.9167 23.5959V17.5834C22.9167 17.2961 23.0308 17.0205 23.234 16.8173C23.4371 16.6142 23.7127 16.5 24 16.5C24.2873 16.5 24.5629 16.6142 24.766 16.8173C24.9692 17.0205 25.0833 17.2961 25.0833 17.5834V22.4042L29.9583 25.3292C30.0833 25.3963 30.1931 25.4886 30.2807 25.6002C30.3684 25.7118 30.432 25.8402 30.4676 25.9776C30.5032 26.1149 30.51 26.2581 30.4876 26.3982C30.4652 26.5383 30.4141 26.6723 30.3375 26.7917Z" fill="#921515"/>
</g>
</g>
</g>
</svg>
