<svg width="57" height="57" viewBox="0 0 57 57" fill="none" xmlns="http://www.w3.org/2000/svg">
<path id="svg" fill-rule="evenodd" clip-rule="evenodd" d="M28.5 57C44.24 57 57 44.24 57 28.5C57 12.76 44.24 0 28.5 0C12.76 0 0 12.76 0 28.5C0 44.24 12.76 57 28.5 57ZM25.6044 13.444C26.0217 13.3735 26.4374 13.2933 26.851 13.2035C27.0357 13.1579 27.8399 13.1163 28.6374 13.1106C29.8042 13.1032 30.3485 13.1488 31.4247 13.3443C35.8952 14.1582 39.3579 16.4337 41.9537 20.2612C43.088 21.9336 44.0074 24.2945 44.2713 26.212C44.4497 27.5093 44.4224 30.6341 44.2234 31.7023C44.0108 32.8457 43.3667 34.7586 42.8418 35.8063C41.6265 38.2288 39.6748 40.4432 37.4963 41.8699C36.822 42.3111 35.7248 42.9204 35.3087 43.084C35.124 43.1564 34.9273 43.2499 34.872 43.2915C34.6514 43.4568 32.9443 43.9704 31.8299 44.2058C30.7999 44.4235 30.4118 44.4566 28.8209 44.4594C27.1896 44.4634 26.8618 44.4355 25.7458 44.2001C23.5438 43.7361 21.7444 43.0133 20.28 42.0056C19.9454 41.7753 19.6764 41.7987 17.768 42.2227C15.6853 42.6856 15.1631 42.7586 14.9864 42.6115C14.7687 42.4314 14.7955 42.1555 15.2144 40.2443C15.6414 38.3011 15.7491 37.8417 15.6146 37.4701C15.5678 37.3407 15.4915 37.2216 15.3883 37.0534C13.8533 34.5488 13.1174 31.8881 13.11 28.8112C13.1032 26.1037 13.6042 23.9377 14.7619 21.6714C15.1763 20.8597 15.903 19.6872 16.2781 19.2244C16.7073 18.696 18.977 16.457 19.3059 16.2376C20.6807 15.3233 20.9971 15.1358 21.9974 14.6473C23.0861 14.1149 24.5431 13.6287 25.605 13.4446L25.6044 13.444ZM23.0565 26.1721C22.5156 24.7391 22.3138 24.2831 22.1417 24.1116C21.9615 23.9309 21.8082 23.9109 20.3815 23.8836C18.6869 23.8505 18.6128 23.871 18.4458 24.4194C18.3779 24.6417 18.8083 26.3306 18.977 26.5039C19.0297 26.5632 19.061 26.6384 19.0659 26.7176C19.0659 26.8373 19.4393 27.7014 19.8753 28.5889C20.101 29.0489 21.4656 31.3728 21.5597 31.4583C21.5888 31.4851 21.8715 31.8527 22.1878 32.2751C23.0565 33.4362 24.3384 34.5722 25.4722 35.185C26.542 35.7635 28.2674 36.0856 29.4867 35.9328C30.3531 35.8245 30.4072 35.7287 30.4072 34.2906C30.4072 32.4193 30.621 32.1326 31.6418 32.6359C32.0579 32.8411 33.4961 34.1897 34.444 35.2636C34.6817 35.5332 34.9706 35.8034 35.0863 35.8644C35.3058 35.9807 38.3314 36.0268 38.6147 35.918C38.8974 35.8097 38.9088 35.2511 38.6392 34.6993C38.3279 34.0626 37.2734 32.7442 36.1101 31.5358C35.4945 30.8969 35.2123 30.5326 35.2123 30.377C35.2123 30.1832 35.6917 29.2957 35.8741 29.1515C35.9351 29.1036 36.419 28.3883 36.6048 28.0725C36.6584 27.9813 36.9673 27.4626 37.2911 26.9194C38.1256 25.52 38.2915 25.1638 38.3536 24.6382C38.4038 24.2164 38.3861 24.1594 38.1626 24.013C37.9535 23.8762 37.6941 23.8562 36.4276 23.883C35.0083 23.9121 34.9279 23.9246 34.6931 24.1452C34.558 24.2723 34.42 24.4672 34.3875 24.5773C34.2918 24.8993 33.2777 26.8715 33.1335 27.0157C33.0611 27.0881 33.0024 27.1896 33.0024 27.242C33.0024 27.4022 32.1395 28.5969 31.6692 29.0888C31.1545 29.6263 30.8621 29.7728 30.593 29.6286C30.4163 29.5345 30.4072 29.4012 30.4055 26.9616C30.4044 25.0846 30.3713 24.3299 30.2824 24.1537L30.161 23.9138H25.8495L25.707 24.1686C25.5702 24.4108 25.5822 24.4541 25.943 25.0338L26.3226 25.6437V28.0947C26.3226 30.54 26.3226 30.5457 26.1134 30.5754C25.8284 30.6153 25.2556 30.0829 24.7084 29.2667C24.2541 28.5895 23.2799 26.7649 23.0565 26.1721Z" fill="white"/>
</svg>
